# xmcd CD database file
#
# Track frame offsets:
#	150
#	25262
#	47962
#	73037
#
# Disc length: 1274 seconds
#
# Revision: 0
# Processed by: cddbd v1.5.1PL0 Copyright (c) Steve Scherf et al.
# Submitted via: CDex 1.51
#
DISCID=3304f804
DTITLE=村田　亮 - 冬の街
DYEAR=2000
DGENRE=JPop
TTITLE0=冬の街
TTITLE1=心の闇
TTITLE2=冬の街-instrumental
TTITLE3=心の闇-instrumental
EXTD=YEAR: 2000
EXTT0=
EXTT1=
EXTT2=
EXTT3=
PLAYORDER=
